# xmcd CD database file
#
# Track frame offsets:
#	150
#	29054
#	41090
#	59413
#	83443
#	107896
#	141128
#	173255
#
# Disc length: 3044 seconds
#
# Revision: 0
# Processed by: cddbd v1.5.2PL0 Copyright (c) Steve Scherf et al.
# Submitted via: CDex 1.70beta2
#
DISCID=630be208
DTITLE=Medwyn Goodall and Runestone  - Druid II
DYEAR=2009
DGENRE=New Age
TTITLE0=01 - Nine Maiden Chronicles, Part 1
TTITLE1=02 - Nine Maiden Chronicles, Part 2
TTITLE2=03 - Nine Maiden Chronicles, Part 3
TTITLE3=04 - Full Moon Gathering
TTITLE4=05 - Where Pathways Meet
TTITLE5=06 - The Sunwise Path
TTITLE6=07 - The Circle Cast
TTITLE7=08 - Nine Maiden Chronicles, Part 4
EXTD=YEAR: 2009
EXTT0=
EXTT1=
EXTT2=
EXTT3=
EXTT4=
EXTT5=
EXTT6=
EXTT7=
PLAYORDER=
